<svg xmlns="http://www.w3.org/2000/svg" version="1.1" xmlns:xlink="http://www.w3.org/1999/xlink" xmlns:svgjs="http://svgjs.dev/svgjs" viewBox="0 0 800 800"><defs><filter id="bbburst-blur-1" x="-100%" y="-100%" width="400%" height="400%"><feGaussianBlur in="SourceGraphic" stdDeviation="1"></feGaussianBlur></filter><filter id="bbburst-blur-2" x="-100%" y="-100%" width="400%" height="400%"><feGaussianBlur in="SourceGraphic" stdDeviation="2"></feGaussianBlur></filter><filter id="bbburst-blur-3" x="-100%" y="-100%" width="400%" height="400%"><feGaussianBlur in="SourceGraphic" stdDeviation="4"></feGaussianBlur></filter><filter id="bbburst-blur-4" x="-100%" y="-100%" width="400%" height="400%"><feGaussianBlur in="SourceGraphic" stdDeviation="12"></feGaussianBlur></filter><symbol id="bbburst-shape-1" viewBox="0 0 194 167"><path d="m97 0 96.129 166.5H.871L97 0Z"></path></symbol><symbol id="bbburst-shape-4" viewBox="0 0 149 143"><path d="M71.647 2.781c.898-2.764 4.808-2.764 5.706 0l15.445 47.534a3 3 0 0 0 2.853 2.073h49.98c2.906 0 4.115 3.719 1.764 5.427L106.96 87.193a2.999 2.999 0 0 0-1.09 3.354l15.445 47.534c.898 2.764-2.266 5.062-4.617 3.354l-40.435-29.378a3 3 0 0 0-3.526 0l-40.435 29.378c-2.351 1.708-5.515-.59-4.617-3.354L43.13 90.547a3 3 0 0 0-1.09-3.354L1.605 57.815c-2.35-1.708-1.142-5.427 1.764-5.427h49.98a3 3 0 0 0 2.853-2.073L71.647 2.781Z"></path></symbol><symbol id="bbburst-shape-5" viewBox="0 0 145 145"><circle cx="72.5" cy="72.5" r="72.5"></circle></symbol><symbol id="bbburst-shape-6" viewBox="0 0 133 116"><path d="M59.7487 10.2513c-13.6683-13.66839-35.8291-13.66839-49.4974 0-13.66839 13.6683-13.66839 35.8291 0 49.4974l49.4974-49.4974ZM66.5 66.5 41.7513 91.2487 66.5 115.997l24.7487-24.7483L66.5 66.5Zm56.249-6.7513c13.668-13.6683 13.668-35.8291 0-49.4974-13.669-13.66839-35.8294-13.66839-49.4977 0l49.4977 49.4974Zm-112.4977 0 31.5 31.5 49.4974-49.4974-31.5-31.5-49.4974 49.4974Zm80.9974 31.5 31.5003-31.5-49.4977-49.4974-31.5 31.5 49.4974 49.4974Z"></path></symbol><symbol id="bbburst-shape-8" viewBox="0 0 87 168"><path d="m12 12 31.2546 18.0749c16.4102 9.4902 20.014 31.6325 7.4603 45.8369L36.3296 92.1884c-12.5684 14.2206-8.9394 36.3916 7.5068 45.8636L75 156" stroke-width="14" stroke-linecap="round" stroke-linejoin="round"></path></symbol><symbol id="bbburst-shape-10" viewBox="0 0 145 145"><circle cx="72.5" cy="72.5" r="61.5" fill="none" stroke-width="22"></circle></symbol></defs><use xlink:href="#bbburst-shape-8" width="27.719705717254044" opacity="0.33528172618341334" transform="matrix(0.8954809168728797,0.4450999073427299,-0.4450999073427299,0.8954809168728797,325.1706928137547,213.556108408279)" fill="none" stroke="#ffbd9b" filter="url(#bbburst-blur-2)"></use><use xlink:href="#bbburst-shape-4" width="30.285268938676488" opacity="0.5541496334616994" transform="matrix(0.8081976053503694,-0.5889113946137641,0.5889113946137641,0.8081976053503694,173.4377765214006,-113.84597996364619)" fill="#2c2891" filter="url(#bbburst-blur-2)"></use><use xlink:href="#bbburst-shape-4" width="14.039462100685085" opacity="0.8070144058468642" transform="matrix(0.7967519336014304,0.6043065085719183,-0.6043065085719183,0.7967519336014304,634.4974906306107,-9.761027531208697)" fill="#ffa6d5"></use><use xlink:href="#bbburst-shape-5" width="19.30850262856782" opacity="0.7175844075729765" transform="matrix(0.9467237403994443,0.32204682790564126,-0.32204682790564126,0.9467237403994443,505.36212821385004,144.47941782151867)" fill="#ff5c58" filter="url(#bbburst-blur-1)"></use><use xlink:href="#bbburst-shape-4" width="34.645048166899706" opacity="0.19034409874885205" transform="matrix(1.1627455682668582,0.4588275748860143,-0.4588275748860143,1.1627455682668582,630.6405966277669,285.07227050004144)" fill="#00a19d" filter="url(#bbburst-blur-3)"></use><use xlink:href="#bbburst-shape-6" width="25.15912074279251" opacity="0.639644640225203" transform="matrix(0.9900641850252557,0.1406161780531534,-0.1406161780531534,0.9900641850252557,282.5574135914293,19.50565696787976)" fill="#2c2891" filter="url(#bbburst-blur-1)"></use><use xlink:href="#bbburst-shape-8" width="16.046636956284893" opacity="0.7719272053549374" transform="matrix(0.9861184119468136,-0.16604360156144027,0.16604360156144027,0.9861184119468136,289.1155224812727,-89.01721505781984)" fill="none" stroke="#2c2891" filter="url(#bbburst-blur-1)"></use><use xlink:href="#bbburst-shape-6" width="27.028385148129285" opacity="0.5384920954455366" transform="matrix(0.9123159415438733,0.40948702397623776,-0.40948702397623776,0.9123159415438733,690.3140930572067,-124.89910620195661)" fill="#ffa6d5" filter="url(#bbburst-blur-2)"></use><use xlink:href="#bbburst-shape-8" width="11.256751022717213" opacity="0.9348764098761715" transform="matrix(0.7203516165191025,0.6936090747519931,-0.6936090747519931,0.7203516165191025,687.4593611494607,82.2484460329602)" fill="none" stroke="#00a19d"></use><use xlink:href="#bbburst-shape-10" width="41.729225473987675" opacity="0.18835730427382513" transform="matrix(1.2200259208638098,0.2720969540814689,-0.2720969540814689,1.2200259208638098,745.3160127860388,-348.22833584791965)" fill="none" stroke="#2c2891" filter="url(#bbburst-blur-3)"></use><use xlink:href="#bbburst-shape-5" width="37.91073399521812" opacity="0.1880471165958828" transform="matrix(1.1254872610891051,-0.5438551508684499,0.5438551508684499,1.1254872610891051,-85.18478574928506,229.99121876141646)" fill="#ff5c58" filter="url(#bbburst-blur-3)"></use><use xlink:href="#bbburst-shape-4" width="14.317741231512016" opacity="0.9103881423756924" transform="matrix(0.8796583654667947,0.4756060975894728,-0.4756060975894728,0.8796583654667947,543.6207342757689,45.50397769376201)" fill="#2c2891"></use><use xlink:href="#bbburst-shape-4" width="24.290080434696964" opacity="0.6775200121765904" transform="matrix(0.982495911120275,0.18628415024349407,-0.18628415024349407,0.982495911120275,500.4606621074016,144.84470826565382)" fill="#ffbd9b" filter="url(#bbburst-blur-1)"></use><use xlink:href="#bbburst-shape-10" width="23.3625744202156" opacity="0.5577003867693995" transform="matrix(0.971584551127393,0.23669275445307206,-0.23669275445307206,0.971584551127393,306.24562172149024,99.46817311349866)" fill="none" stroke="#ffa6d5" filter="url(#bbburst-blur-1)"></use><use xlink:href="#bbburst-shape-8" width="38.164744242610944" opacity="-0.0808703276226459" transform="matrix(1.749595722141852,0.037613947717987095,-0.037613947717987095,1.749595722141852,724.6793081662113,44.28307961725886)" fill="none" stroke="#ffa6d5" filter="url(#bbburst-blur-4)"></use><use xlink:href="#bbburst-shape-5" width="22.925624282449295" opacity="0.6587287146990126" transform="matrix(0.7417206338894893,-0.6707089542138037,0.6707089542138037,0.7417206338894893,4.100735040393488,14.065124346574578)" fill="#00a19d" filter="url(#bbburst-blur-1)"></use><use xlink:href="#bbburst-shape-5" width="25.433382898997955" opacity="0.5813203207545564" transform="matrix(0.9558068776738483,0.29399525947091265,-0.29399525947091265,0.9558068776738483,693.8169599141435,10.450558268410191)" fill="#ffa6d5" filter="url(#bbburst-blur-1)"></use><use xlink:href="#bbburst-shape-4" width="26.76141776495637" opacity="0.30245298537059906" transform="matrix(1.2471913321665284,0.08374831919913493,-0.08374831919913493,1.2471913321665284,730.1952162602608,-117.8510775976469)" fill="#2c2891" filter="url(#bbburst-blur-3)"></use><use xlink:href="#bbburst-shape-1" width="35.822505456375964" opacity="0.5486751351507919" transform="matrix(0.9966495900487361,-0.081789942264843,0.081789942264843,0.9966495900487361,361.56376530580667,205.58494069762037)" fill="#ffa6d5" filter="url(#bbburst-blur-2)"></use><use xlink:href="#bbburst-shape-10" width="35.78956453976224" opacity="0.3552352330687242" transform="matrix(0.7789181656549874,-0.6271255785029579,0.6271255785029579,0.7789181656549874,212.04071532389656,-180.13212663050552)" fill="none" stroke="#ffa6d5" filter="url(#bbburst-blur-2)"></use><use xlink:href="#bbburst-shape-10" width="32.15675446936373" opacity="0.36778436675051907" transform="matrix(0.7641618071564997,0.6450245983552197,-0.6450245983552197,0.7641618071564997,448.5818875425906,-121.15470085658004)" fill="none" stroke="#ffa6d5" filter="url(#bbburst-blur-2)"></use><use xlink:href="#bbburst-shape-10" width="31.504349617208355" opacity="0.5205956995022412" transform="matrix(0.9641963427643707,-0.26518939005890135,0.26518939005890135,0.9641963427643707,378.17806707680876,209.94473461027343)" fill="none" stroke="#00a19d" filter="url(#bbburst-blur-2)"></use><use xlink:href="#bbburst-shape-8" width="50.124641944923425" opacity="-0.07560223623551177" transform="matrix(1.3591531905379455,1.1023622837572606,-1.1023622837572606,1.3591531905379455,462.83007991081104,-511.7372687840634)" fill="none" stroke="#00a19d" filter="url(#bbburst-blur-4)"></use><use xlink:href="#bbburst-shape-1" width="15.529152576760616" opacity="0.7776765992596966" transform="matrix(0.8115795131984063,-0.5842419821928563,0.5842419821928563,0.8115795131984063,259.73937426441825,87.90964457082953)" fill="#00a19d" filter="url(#bbburst-blur-1)"></use><use xlink:href="#bbburst-shape-10" width="29.10812741955867" opacity="0.48113432528601296" transform="matrix(0.9151978008356625,0.40300494456714425,-0.40300494456714425,0.9151978008356625,478.92096004580003,251.12889200699504)" fill="none" stroke="#2c2891" filter="url(#bbburst-blur-2)"></use><use xlink:href="#bbburst-shape-10" width="39.85484825281826" opacity="0.15867956166272612" transform="matrix(1.075690104719287,0.6367030694201258,-0.6367030694201258,1.075690104719287,775.4041011823498,-393.8548934210381)" fill="none" stroke="#2c2891" filter="url(#bbburst-blur-3)"></use><use xlink:href="#bbburst-shape-8" width="12.571305615287612" opacity="0.918635132692113" transform="matrix(0.9415102034628953,0.3369844755701033,-0.3369844755701033,0.9415102034628953,529.4483824059178,57.887465016273666)" fill="none" stroke="#ff5c58"></use><use xlink:href="#bbburst-shape-4" width="25.719908976755473" opacity="0.5363805244285166" transform="matrix(0.8774578223020784,-0.47965380232089716,0.47965380232089716,0.8774578223020784,76.46718264927557,-115.17677475068473)" fill="#2c2891" filter="url(#bbburst-blur-2)"></use><use xlink:href="#bbburst-shape-4" width="18.929010982083888" opacity="0.816942595940732" transform="matrix(0.7310198089838303,0.6823562404442742,-0.6823562404442742,0.7310198089838303,681.4114967638134,182.07008412905566)" fill="#ffbd9b"></use><use xlink:href="#bbburst-shape-1" width="38.702991121716565" opacity="0.07982523690619114" transform="matrix(1.7499937673875505,-0.004670557218171284,0.004670557218171284,1.7499937673875505,157.59080076116865,58.9921924495186)" fill="#ffbd9b" filter="url(#bbburst-blur-4)"></use><use xlink:href="#bbburst-shape-4" width="43.334412137187805" opacity="0.17481750950649733" transform="matrix(1.2321998285536961,0.21019891177701594,-0.21019891177701594,1.2321998285536961,100.67527568089437,5.834019969870951)" fill="#00a19d" filter="url(#bbburst-blur-3)"></use><use xlink:href="#bbburst-shape-5" width="12.408412810695486" opacity="0.8713346261140306" transform="matrix(0.9990702241517352,0.043112494864037024,-0.043112494864037024,0.9990702241517352,424.93494084265683,-56.10460391052317)" fill="#2c2891"></use><use xlink:href="#bbburst-shape-8" width="13.860087599691116" opacity="0.865227675766229" transform="matrix(0.9891866181994277,-0.146662314093225,0.146662314093225,0.9891866181994277,380.5699851099061,-34.076977882643064)" fill="none" stroke="#ffa6d5"></use><use xlink:href="#bbburst-shape-5" width="29.70925931796846" opacity="0.27049744283556476" transform="matrix(1.1604302307197207,-0.46465221363055587,0.46465221363055587,1.1604302307197207,360.47072146909727,227.35321187869658)" fill="#00a19d" filter="url(#bbburst-blur-3)"></use><use xlink:href="#bbburst-shape-4" width="23.854561332943163" opacity="0.7469900914881296" transform="matrix(0.9778436162091757,-0.209336719757816,0.209336719757816,0.9778436162091757,238.49159591281358,104.07155248829935)" fill="#00a19d" filter="url(#bbburst-blur-1)"></use><use xlink:href="#bbburst-shape-5" width="22.215233017145614" opacity="0.7797991736052314" transform="matrix(0.9980239558787704,-0.06283457242705079,0.06283457242705079,0.9980239558787704,421.19428080813987,82.25073794851187)" fill="#ffbd9b"></use><use xlink:href="#bbburst-shape-1" width="26.42497721928116" opacity="0.5601697527742769" transform="matrix(0.9945456924137529,-0.10430180104508696,0.10430180104508696,0.9945456924137529,300.1779249580721,-189.1547341453138)" fill="#00a19d" filter="url(#bbburst-blur-1)"></use><use xlink:href="#bbburst-shape-4" width="24.86179137187147" opacity="0.6270209535249986" transform="matrix(0.8655895849449836,-0.5007541017652986,0.5007541017652986,0.8655895849449836,125.98613114715434,215.59151959082533)" fill="#2c2891" filter="url(#bbburst-blur-1)"></use><use xlink:href="#bbburst-shape-10" width="15.279476297574046" opacity="0.984008711370843" transform="matrix(0.8832333939775666,0.46893365390305336,-0.46893365390305336,0.8832333939775666,574.3387530223204,46.23891848237247)" fill="none" stroke="#ffa6d5"></use><use xlink:href="#bbburst-shape-6" width="21.57701860228882" opacity="0.6772383178194967" transform="matrix(0.9530174792699685,-0.3029153086357889,0.3029153086357889,0.9530174792699685,410.31784866332066,53.65228126195899)" fill="#ffbd9b" filter="url(#bbburst-blur-1)"></use><use xlink:href="#bbburst-shape-4" width="16.18894597346059" opacity="0.7737481417582955" transform="matrix(0.9875268843724724,-0.157450476790633,0.157450476790633,0.9875268843724724,403.9598368448704,-62.65118618306985)" fill="#2c2891" filter="url(#bbburst-blur-1)"></use><use xlink:href="#bbburst-shape-6" width="16.751667405154997" opacity="0.8874733352478325" transform="matrix(0.9069124245839373,-0.4213191832035236,0.4213191832035236,0.9069124245839373,258.48198013307706,77.73095981627728)" fill="#2c2891"></use><use xlink:href="#bbburst-shape-1" width="19.13810668959478" opacity="0.6721212139344293" transform="matrix(0.8705746024096471,0.49203644340565356,-0.49203644340565356,0.8705746024096471,712.5493819166842,-32.75673965405713)" fill="#00a19d" filter="url(#bbburst-blur-1)"></use><use xlink:href="#bbburst-shape-10" width="56.22162120985783" opacity="0.09272752404226481" transform="matrix(1.6015920701821726,0.7052679212395688,-0.7052679212395688,1.6015920701821726,290.74071777806,-44.28645222005753)" fill="none" stroke="#ffa6d5" filter="url(#bbburst-blur-4)"></use><use xlink:href="#bbburst-shape-10" width="34.73711373019529" opacity="0.3947983285935016" transform="matrix(0.9361195934348325,0.35168182606925225,-0.35168182606925225,0.9361195934348325,270.8961348452097,118.93433258660548)" fill="none" stroke="#ff5c58" filter="url(#bbburst-blur-2)"></use><use xlink:href="#bbburst-shape-6" width="36.577072225556776" opacity="0.3062777057560502" transform="matrix(1.2388653754493633,-0.16647096297164987,0.16647096297164987,1.2388653754493633,175.27699119619425,188.7444229830591)" fill="#2c2891" filter="url(#bbburst-blur-3)"></use><use xlink:href="#bbburst-shape-6" width="19.85029507523451" opacity="0.6617693289485331" transform="matrix(0.7620308259454647,0.6475407479910997,-0.6475407479910997,0.7620308259454647,742.0371967443933,211.07394188962917)" fill="#ff5c58" filter="url(#bbburst-blur-1)"></use><use xlink:href="#bbburst-shape-5" width="34.678232946938806" opacity="0.3576341233730638" transform="matrix(0.9978454999179073,-0.06560760850375363,0.06560760850375363,0.9978454999179073,345.33220140962555,290.84993911249524)" fill="#2c2891" filter="url(#bbburst-blur-2)"></use><use xlink:href="#bbburst-shape-10" width="53.76994883076604" opacity="-0.0708573249483031" transform="matrix(1.7463621125186357,0.11278019311673501,-0.11278019311673501,1.7463621125186357,57.59945977443097,39.3506371432245)" fill="none" stroke="#ffa6d5" filter="url(#bbburst-blur-4)"></use><use xlink:href="#bbburst-shape-6" width="16.39280610680739" opacity="0.8637091482096373" transform="matrix(0.9411782698001271,0.33791043851298697,-0.33791043851298697,0.9411782698001271,502.76167247852385,-35.38320793658693)" fill="#ffa6d5"></use><use xlink:href="#bbburst-shape-6" width="32.056769104213416" opacity="0.4427361340989039" transform="matrix(0.8179751060375597,0.5752536187655345,-0.5752536187655345,0.8179751060375597,866.5269628585295,88.41866951165105)" fill="#ffbd9b" filter="url(#bbburst-blur-2)"></use><use xlink:href="#bbburst-shape-4" width="18.247604419318105" opacity="0.6898106660298959" transform="matrix(0.8854288551224517,-0.4647749374875375,0.4647749374875375,0.8854288551224517,323.25519464775425,125.84480931526662)" fill="#00a19d" filter="url(#bbburst-blur-1)"></use><use xlink:href="#bbburst-shape-6" width="15.30085312716299" opacity="0.7623256122642673" transform="matrix(0.7083779379590283,-0.7058333351527931,0.7058333351527931,0.7083779379590283,16.90110555521801,73.59133007970541)" fill="#ff5c58" filter="url(#bbburst-blur-1)"></use><use xlink:href="#bbburst-shape-5" width="31.705543451682633" opacity="0.49476023167382843" transform="matrix(0.9875178214175487,-0.1575073089819593,0.1575073089819593,0.9875178214175487,130.70007531855,-116.39398782203887)" fill="#00a19d" filter="url(#bbburst-blur-2)"></use><use xlink:href="#bbburst-shape-4" width="22.696757595681134" opacity="0.6740593208984214" transform="matrix(0.9065552135766464,0.4220872477782301,-0.4220872477782301,0.9065552135766464,649.4329970226627,-82.50729024781049)" fill="#ffa6d5" filter="url(#bbburst-blur-1)"></use><use xlink:href="#bbburst-shape-6" width="9.668374243189236" opacity="0.9298103148126715" transform="matrix(0.9527583540137249,-0.3037293513262385,0.3037293513262385,0.9527583540137249,256.8097556226495,-6.195708540548594)" fill="#2c2891"></use><use xlink:href="#bbburst-shape-6" width="38.98637356345776" opacity="0.37535159541381447" transform="matrix(0.9179671424754497,0.39665643236364817,-0.39665643236364817,0.9179671424754497,741.2929505949343,222.0648113970193)" fill="#2c2891" filter="url(#bbburst-blur-2)"></use><use xlink:href="#bbburst-shape-8" width="33.77443408047944" opacity="0.3859648894151241" transform="matrix(0.9664420828847883,0.25688460527893053,-0.25688460527893053,0.9664420828847883,567.3630366757525,273.28352586283154)" fill="none" stroke="#2c2891" filter="url(#bbburst-blur-2)"></use><use xlink:href="#bbburst-shape-6" width="17.153303401544328" opacity="0.8614812588122625" transform="matrix(0.8368094665762762,0.5474942160866433,-0.5474942160866433,0.8368094665762762,557.136781162172,30.661797220313588)" fill="#ffa6d5"></use><use xlink:href="#bbburst-shape-6" width="36.842753226649386" opacity="0.3971622714832743" transform="matrix(0.8906578591271263,0.45467414482801205,-0.45467414482801205,0.8906578591271263,301.8269494529354,-28.572834065885672)" fill="#ff5c58" filter="url(#bbburst-blur-2)"></use><use xlink:href="#bbburst-shape-10" width="18.88806562504541" opacity="0.6502253069697133" transform="matrix(0.7798086577220152,-0.6260179369169775,0.6260179369169775,0.7798086577220152,198.72830653273564,-52.919688495249005)" fill="none" stroke="#2c2891" filter="url(#bbburst-blur-1)"></use><use xlink:href="#bbburst-shape-8" width="14.786150596427436" opacity="0.78638737034537" transform="matrix(0.9261703124873669,0.3771054922260523,-0.3771054922260523,0.9261703124873669,586.3771998938582,-59.53408430147857)" fill="none" stroke="#ffa6d5"></use><use xlink:href="#bbburst-shape-6" width="36.22131708591999" opacity="0.1984278750911449" transform="matrix(0.9069628454761246,-0.8601850945731688,0.8601850945731688,0.9069628454761246,72.3601131408222,-306.4138992791568)" fill="#ff5c58" filter="url(#bbburst-blur-3)"></use><use xlink:href="#bbburst-shape-6" width="17.448561190956816" opacity="0.7867586054581913" transform="matrix(0.9736220834645954,-0.2281666903604916,0.2281666903604916,0.9736220834645954,390.29340043960764,-20.598636056428234)" fill="#ff5c58"></use><use xlink:href="#bbburst-shape-10" width="28.22957691059307" opacity="0.5358096661574431" transform="matrix(0.712562777137227,-0.7016083584439986,0.7016083584439986,0.712562777137227,264.2443119417518,264.96777049329575)" fill="none" stroke="#00a19d" filter="url(#bbburst-blur-2)"></use><use xlink:href="#bbburst-shape-6" width="22.659889778619906" opacity="0.720107020065359" transform="matrix(0.8012159405567432,-0.598375314161416,0.598375314161416,0.8012159405567432,36.74818607875247,138.055261036017)" fill="#ff5c58" filter="url(#bbburst-blur-1)"></use><use xlink:href="#bbburst-shape-8" width="23.828178372272518" opacity="0.5919898200770259" transform="matrix(0.9999793702749737,0.006423318804716336,-0.006423318804716336,0.9999793702749737,215.34270381220543,-54.621690946266426)" fill="none" stroke="#2c2891" filter="url(#bbburst-blur-1)"></use><use xlink:href="#bbburst-shape-8" width="22.50770214008182" opacity="0.6724698179918595" transform="matrix(0.9136057276404234,-0.4066012474435028,0.4066012474435028,0.9136057276404234,157.6695576193798,-90.88904971167636)" fill="none" stroke="#2c2891" filter="url(#bbburst-blur-1)"></use><use xlink:href="#bbburst-shape-4" width="37.007758847164624" opacity="0.07250404848870096" transform="matrix(1.3822436160267557,1.073267248150841,-1.073267248150841,1.3822436160267557,592.106032595416,-532.4758535700586)" fill="#00a19d" filter="url(#bbburst-blur-4)"></use><use xlink:href="#bbburst-shape-5" width="17.59067089568904" opacity="0.8119032345189268" transform="matrix(0.9301122945117749,-0.3672752640704806,0.3672752640704806,0.9301122945117749,319.4041106213821,71.37298870492697)" fill="#00a19d"></use><use xlink:href="#bbburst-shape-6" width="33.33836298095895" opacity="0.07436065563047023" transform="matrix(1.691968545800815,-0.4469255419202128,0.4469255419202128,1.691968545800815,400.20487366491847,92.02253991219015)" fill="#ffa6d5" filter="url(#bbburst-blur-4)"></use><use xlink:href="#bbburst-shape-6" width="26.042699871736815" opacity="0.4487167769182545" transform="matrix(0.9930338354010801,-0.11782954531279687,0.11782954531279687,0.9930338354010801,579.656209003307,-59.53345015940954)" fill="#ffa6d5" filter="url(#bbburst-blur-2)"></use><use xlink:href="#bbburst-shape-10" width="33.3109421115111" opacity="0.41391843300816" transform="matrix(0.792840210039085,0.6094295704551753,-0.6094295704551753,0.792840210039085,539.2736485613098,-174.71846935637868)" fill="none" stroke="#00a19d" filter="url(#bbburst-blur-2)"></use><use xlink:href="#bbburst-shape-4" width="16.335134769208768" opacity="0.6784893208812777" transform="matrix(0.8441924594833446,-0.5360401956490404,0.5360401956490404,0.8441924594833446,319.94312635883307,35.38094648290331)" fill="#ffbd9b" filter="url(#bbburst-blur-1)"></use><use xlink:href="#bbburst-shape-8" width="33.54565110007601" opacity="0.18554859212048336" transform="matrix(1.2387065759991036,-0.1676484970901229,0.1676484970901229,1.2387065759991036,241.1520820618843,266.887179912781)" fill="none" stroke="#00a19d" filter="url(#bbburst-blur-3)"></use><use xlink:href="#bbburst-shape-8" width="33.65206058036189" opacity="0.3951780928750034" transform="matrix(0.9978245650278577,0.06592524119763706,-0.06592524119763706,0.9978245650278577,621.6024873889746,-170.8942141101775)" fill="none" stroke="#ffa6d5" filter="url(#bbburst-blur-2)"></use><use xlink:href="#bbburst-shape-6" width="20.71671064047222" opacity="0.8187800981764093" transform="matrix(0.8240026999043464,0.5665858721768021,-0.5665858721768021,0.8240026999043464,536.7055499196485,69.56554253197027)" fill="#ffa6d5"></use><use xlink:href="#bbburst-shape-1" width="30.96155041484073" opacity="0.4990885183803071" transform="matrix(0.9793661732547674,-0.2020937868523251,0.2020937868523251,0.9793661732547674,78.81341659023684,21.250357150503305)" fill="#00a19d" filter="url(#bbburst-blur-2)"></use><use xlink:href="#bbburst-shape-4" width="30.242819817087774" opacity="0.2681623327352072" transform="matrix(1.182045612293524,-0.4065318812315072,0.4065318812315072,1.182045612293524,60.944324236411745,-355.2708660255724)" fill="#ffa6d5" filter="url(#bbburst-blur-3)"></use><use xlink:href="#bbburst-shape-6" width="43.274280719417234" opacity="0.3901987946317661" transform="matrix(0.9999993881800936,0.001106182371210039,-0.001106182371210039,0.9999993881800936,368.0344531097378,-274.22227873285095)" fill="#ff5c58" filter="url(#bbburst-blur-2)"></use><use xlink:href="#bbburst-shape-6" width="18.67949748725609" opacity="0.8325361090514458" transform="matrix(0.9191401810600225,0.39393061262226,-0.39393061262226,0.9191401810600225,524.1082366361283,99.79827296078474)" fill="#ffa6d5"></use><use xlink:href="#bbburst-shape-6" width="13.780748282673905" opacity="0.8713830082949625" transform="matrix(0.9783068358974761,0.20716113254244536,-0.20716113254244536,0.9783068358974761,533.951395771864,4.849672868739162)" fill="#ff5c58"></use><use xlink:href="#bbburst-shape-6" width="38.80580435748645" opacity="0.19461816732109982" transform="matrix(1.1908351226493155,-0.380015408457065,0.380015408457065,1.1908351226493155,146.5803288707505,-422.8208939566758)" fill="#2c2891" filter="url(#bbburst-blur-3)"></use><use xlink:href="#bbburst-shape-5" width="15.593058406341617" opacity="0.7252190400601125" transform="matrix(0.7873981767329069,0.6164447349744289,-0.6164447349744289,0.7873981767329069,518.1189051162412,62.13778411403058)" fill="#ffbd9b" filter="url(#bbburst-blur-1)"></use><use xlink:href="#bbburst-shape-6" width="33.67315007706551" opacity="0.16984571604630283" transform="matrix(1.2495772813183454,0.032505661246200204,-0.032505661246200204,1.2495772813183454,757.0710136185014,-179.43942762462706)" fill="#ffa6d5" filter="url(#bbburst-blur-3)"></use><use xlink:href="#bbburst-shape-4" width="35.91765609896464" opacity="0.06658312712089742" transform="matrix(1.403333775061602,-1.0455402028479597,1.0455402028479597,1.403333775061602,319.15492359354835,69.61366838927836)" fill="#00a19d" filter="url(#bbburst-blur-4)"></use><use xlink:href="#bbburst-shape-10" width="44.659709188275" opacity="0.2884167810356819" transform="matrix(1.0386705883377272,-0.6954591353359012,0.6954591353359012,1.0386705883377272,388.01006139500254,-137.0194965490163)" fill="none" stroke="#ff5c58" filter="url(#bbburst-blur-3)"></use><use xlink:href="#bbburst-shape-1" width="16.992338674537997" opacity="0.8197113711297392" transform="matrix(0.8938751375269914,0.44831600296119495,-0.44831600296119495,0.8938751375269914,504.6206148757702,84.2615476882271)" fill="#2c2891"></use><use xlink:href="#bbburst-shape-5" width="41.01720831459677" opacity="0.08698251336981044" transform="matrix(1.4433160682412374,-0.9896154440774737,0.9896154440774737,1.4433160682412374,-385.943490930641,-354.12508792422557)" fill="#2c2891" filter="url(#bbburst-blur-4)"></use><use xlink:href="#bbburst-shape-10" width="31.142184074041094" opacity="0.6275013670293972" transform="matrix(0.9355253023448505,-0.35325969013259356,0.35325969013259356,0.9355253023448505,125.84001393974953,150.05776434676494)" fill="none" stroke="#ffa6d5" filter="url(#bbburst-blur-1)"></use><use xlink:href="#bbburst-shape-10" width="15.52235405976269" opacity="0.7837258745057097" transform="matrix(0.8477381215907922,-0.530415004691341,0.530415004691341,0.8477381215907922,116.19575317330987,-7.3608468964866915)" fill="none" stroke="#ffa6d5"></use><use xlink:href="#bbburst-shape-4" width="17.583130678936662" opacity="0.7304657222505686" transform="matrix(0.9397141066491261,0.3419611056313785,-0.3419611056313785,0.9397141066491261,549.0635345995181,-98.41456432920234)" fill="#ffbd9b" filter="url(#bbburst-blur-1)"></use><use xlink:href="#bbburst-shape-10" width="29.764719753267702" opacity="0.188027933921166" transform="matrix(1.0213122349124948,-0.720708900193445,0.720708900193445,1.0213122349124948,455.01639538517475,72.81323828516668)" fill="none" stroke="#ff5c58" filter="url(#bbburst-blur-3)"></use><use xlink:href="#bbburst-shape-10" width="30.693085545884813" opacity="0.33488386533411196" transform="matrix(0.9232837806437011,0.3841185499299325,-0.3841185499299325,0.9232837806437011,703.4660312029068,-225.58778718308)" fill="none" stroke="#ffbd9b" filter="url(#bbburst-blur-2)"></use><use xlink:href="#bbburst-shape-6" width="20.949415349147653" opacity="0.5483828671774513" transform="matrix(0.9659389583963843,0.2587700304365017,-0.2587700304365017,0.9659389583963843,674.1846716777698,-81.90182661703773)" fill="#00a19d" filter="url(#bbburst-blur-2)"></use><use xlink:href="#bbburst-shape-10" width="35.94708075915155" opacity="0.15434180610214066" transform="matrix(1.1278008399255823,0.5390410610177586,-0.5390410610177586,1.1278008399255823,322.7675210437875,-326.35817594795475)" fill="none" stroke="#2c2891" filter="url(#bbburst-blur-3)"></use><use xlink:href="#bbburst-shape-8" width="27.04917270665742" opacity="0.5435552657609932" transform="matrix(0.9521452310899373,0.3056459698944022,-0.3056459698944022,0.9521452310899373,697.7976884704655,96.79060495157631)" fill="none" stroke="#00a19d" filter="url(#bbburst-blur-2)"></use><use xlink:href="#bbburst-shape-6" width="10.788020839701405" opacity="0.9439204209458486" transform="matrix(0.8860396250509769,0.463609515475604,-0.463609515475604,0.8860396250509769,605.8173095081371,45.12802350024526)" fill="#00a19d"></use><use xlink:href="#bbburst-shape-6" width="30.936136727474967" opacity="0.4643472620454936" transform="matrix(0.9670069748148173,0.25474989825217825,-0.25474989825217825,0.9670069748148173,335.3075334194197,196.6310807433427)" fill="#00a19d" filter="url(#bbburst-blur-2)"></use><use xlink:href="#bbburst-shape-8" width="33.833110315951785" opacity="0.14581907347956946" transform="matrix(1.157289181796623,0.4724211571220144,-0.4724211571220144,1.157289181796623,841.3994193034799,200.6815445625541)" fill="none" stroke="#00a19d" filter="url(#bbburst-blur-3)"></use><use xlink:href="#bbburst-shape-6" width="43.045963196494384" opacity="-0.07836148537963483" transform="matrix(1.5631817908321046,-0.786741818394659,0.786741818394659,1.5631817908321046,401.4734114374004,-544.6571202815575)" fill="#ffbd9b" filter="url(#bbburst-blur-4)"></use><use xlink:href="#bbburst-shape-6" width="41.90807443988218" opacity="0.2867785374869891" transform="matrix(1.2490366605000651,0.04906547387771397,-0.04906547387771397,1.2490366605000651,109.19210815809777,-249.65221060996097)" fill="#ff5c58" filter="url(#bbburst-blur-3)"></use><use xlink:href="#bbburst-shape-4" width="35.08321206905038" opacity="0.5070002760403303" transform="matrix(0.9839925330349635,-0.1782096937078237,0.1782096937078237,0.9839925330349635,401.05881893509917,-193.39176739370149)" fill="#2c2891" filter="url(#bbburst-blur-2)"></use><use xlink:href="#bbburst-shape-8" width="21.816779088022944" opacity="0.6829258911452358" transform="matrix(0.92110474570804,0.3893148435830914,-0.3893148435830914,0.92110474570804,530.7653352265122,-114.59058787610707)" fill="none" stroke="#2c2891" filter="url(#bbburst-blur-1)"></use><use xlink:href="#bbburst-shape-6" width="37.68136165669527" opacity="0.25455391687435636" transform="matrix(1.0458733347668956,-0.6845794092898012,0.6845794092898012,1.0458733347668956,398.74642126401216,159.16351521711863)" fill="#ffbd9b" filter="url(#bbburst-blur-3)"></use><use xlink:href="#bbburst-shape-10" width="43.64776971116979" opacity="0.04730324469333458" transform="matrix(1.7190995398894264,0.32740918122734747,-0.32740918122734747,1.7190995398894264,737.2377035141861,-647.4337253178393)" fill="none" stroke="#00a19d" filter="url(#bbburst-blur-4)"></use><use xlink:href="#bbburst-shape-6" width="35.607148805637806" opacity="0.08353329942551757" transform="matrix(1.3639246957723032,1.0964531108362228,-1.0964531108362228,1.3639246957723032,1169.848440687229,-374.05416138602845)" fill="#2c2891" filter="url(#bbburst-blur-4)"></use><use xlink:href="#bbburst-shape-10" width="45.60845466081069" opacity="0.1919485920809899" transform="matrix(1.0827528303729388,-0.6246169292609591,0.6246169292609591,1.0827528303729388,-234.26365862111993,-71.9546082915935)" fill="none" stroke="#ffa6d5" filter="url(#bbburst-blur-3)"></use><use xlink:href="#bbburst-shape-8" width="24.885613673493822" opacity="0.3804982712045113" transform="matrix(0.9718761384076343,-0.2354926147331692,0.2354926147331692,0.9718761384076343,554.9208586473444,111.57003487980802)" fill="none" stroke="#ffa6d5" filter="url(#bbburst-blur-2)"></use><use xlink:href="#bbburst-shape-5" width="15.452061175171828" opacity="0.8979590866195573" transform="matrix(0.9267405685995052,-0.3757019011288949,0.3757019011288949,0.9267405685995052,208.87317072248564,63.411466901799656)" fill="#2c2891"></use><use xlink:href="#bbburst-shape-4" width="35.43160541338336" opacity="0.3084793905126282" transform="matrix(1.2496595471471634,-0.029172182365161427,0.029172182365161427,1.2496595471471634,56.37070846687719,-70.22716595354558)" fill="#00a19d" filter="url(#bbburst-blur-3)"></use></svg>